<?xml version="1.0" standalone="no"?>
<!DOCTYPE svg PUBLIC "-//W3C//DTD SVG 20010904//EN"
 "http://www.w3.org/TR/2001/REC-SVG-20010904/DTD/svg10.dtd">
<svg version="1.0" xmlns="http://www.w3.org/2000/svg"
 width="512.000000pt" height="512.000000pt" viewBox="0 0 512.000000 512.000000"
 preserveAspectRatio="xMidYMid meet">

<g transform="translate(0.000000,512.000000) scale(0.100000,-0.100000)"
fill="#000000" stroke="none">
<path d="M2386 4857 c-16 -16 -27 -45 -35 -93 -31 -181 -72 -292 -127 -348
-56 -55 -161 -93 -349 -126 -83 -15 -115 -39 -115 -86 0 -60 21 -72 179 -103
285 -58 340 -111 397 -391 13 -63 26 -125 29 -138 8 -31 65 -55 99 -42 36 13
52 45 65 125 16 97 47 208 72 258 53 106 139 152 359 192 47 9 97 20 112 26
52 21 62 103 15 133 -12 8 -71 24 -132 35 -302 59 -361 115 -416 400 -25 132
-34 156 -65 170 -38 17 -62 13 -88 -12z m83 -456 c29 -61 100 -131 169 -169
l53 -29 -55 -31 c-79 -45 -116 -82 -160 -156 l-39 -67 -31 56 c-41 73 -103
135 -171 169 l-54 28 58 29 c67 34 141 107 173 173 12 25 24 46 27 46 4 -1 17
-23 30 -49z"/>
<path d="M4163 4305 c-35 -15 -37 -18 -59 -135 -36 -192 -81 -238 -266 -275
-109 -21 -133 -31 -147 -61 -30 -66 4 -106 105 -123 147 -25 218 -57 253 -114
20 -33 54 -149 66 -226 12 -74 60 -107 119 -80 30 14 40 38 61 147 37 187 83
230 280 267 109 21 120 26 134 65 22 65 -15 101 -119 119 -110 18 -169 40
-210 77 -45 41 -64 85 -89 213 -25 123 -59 156 -128 126z m147 -490 c28 -9 25
-16 -20 -47 -22 -15 -50 -43 -62 -63 -13 -19 -26 -35 -30 -35 -3 0 -16 16 -28
36 -13 19 -40 47 -61 61 -22 14 -39 28 -39 32 1 3 18 18 40 33 22 15 50 43 62
62 l23 35 48 -54 c26 -30 56 -57 67 -60z"/>
<path d="M724 3270 c-30 -12 -30 -12 -59 -151 -52 -249 -101 -296 -361 -344
-49 -10 -96 -21 -105 -26 -24 -13 -40 -65 -29 -94 14 -36 45 -51 148 -69 178
-32 260 -79 302 -177 12 -28 32 -102 45 -165 12 -63 29 -121 36 -130 23 -28
57 -35 94 -20 38 16 37 14 65 154 47 235 91 282 307 328 149 32 168 40 182 70
32 71 -2 105 -127 128 -261 48 -316 100 -364 346 -29 148 -58 181 -134 150z
m64 -437 c24 -44 83 -102 130 -129 30 -17 42 -34 24 -34 -26 0 -106 -69 -140
-120 l-39 -58 -39 56 c-23 33 -63 73 -96 96 l-56 39 53 36 c54 36 109 97 120
132 9 28 19 24 43 -18z"/>
<path d="M3890 2859 c-30 -13 -102 -77 -225 -199 l-182 -180 -129 0 c-193 -1
-179 7 -480 -273 -140 -132 -260 -250 -267 -264 -21 -47 41 -113 94 -100 13 4
137 112 276 241 l252 234 148 4 c118 3 155 8 183 22 19 10 116 99 216 197
l180 179 145 0 c101 0 150 -4 162 -12 9 -7 124 -259 255 -560 l240 -548 -275
0 -274 0 -24 -25 c-16 -15 -25 -36 -25 -55 0 -19 9 -40 25 -55 l24 -25 349 0
349 0 27 26 c14 15 26 37 26 49 0 12 -122 301 -271 641 -293 672 -297 678
-387 709 -34 11 -87 15 -206 15 -140 0 -167 -3 -206 -21z"/>
<path d="M1962 1925 c-24 -7 -59 -24 -78 -37 -19 -12 -184 -202 -366 -422
-241 -290 -341 -402 -364 -412 -24 -10 -81 -14 -197 -14 -178 0 -230 -9 -298
-54 -26 -18 -115 -128 -269 -333 -248 -330 -253 -341 -205 -388 l24 -25 2345
0 c1289 0 2352 3 2361 6 19 8 45 55 45 83 0 10 -66 102 -147 202 -201 250
-234 269 -471 269 -93 0 -125 4 -157 19 -22 10 -258 206 -525 435 -267 229
-505 426 -530 438 -34 17 -63 22 -120 23 -68 0 -84 -4 -166 -43 -50 -23 -106
-42 -124 -42 -24 0 -104 40 -288 142 -141 78 -272 147 -291 154 -46 17 -124
16 -179 -1z m378 -286 c140 -78 272 -148 294 -155 21 -8 64 -14 95 -14 54 0
72 6 217 70 38 17 61 21 87 16 28 -5 138 -94 533 -433 360 -308 512 -432 552
-451 49 -22 73 -26 211 -31 132 -5 161 -9 191 -27 31 -18 120 -114 172 -186
l19 -28 -2155 0 -2156 0 165 220 c95 126 180 229 198 240 28 18 51 20 203 20
189 0 245 10 306 57 21 16 185 206 367 424 226 273 338 400 357 407 64 23 83
16 344 -129z"/>
</g>
</svg>
